<svg id="visual" viewBox="0 0 900 450" width="900" height="450" xmlns="http://www.w3.org/2000/svg" xmlns:xlink="http://www.w3.org/1999/xlink" version="1.1"><rect x="0" y="0" width="900" height="450" fill="#001220"></rect><defs><linearGradient id="grad1_0" x1="50%" y1="0%" x2="100%" y2="100%"><stop offset="10%" stop-color="#fbae3c" stop-opacity="1"></stop><stop offset="90%" stop-color="#fbae3c" stop-opacity="1"></stop></linearGradient></defs><defs><linearGradient id="grad1_1" x1="50%" y1="0%" x2="100%" y2="100%"><stop offset="10%" stop-color="#fbae3c" stop-opacity="1"></stop><stop offset="90%" stop-color="#f48350" stop-opacity="1"></stop></linearGradient></defs><defs><linearGradient id="grad1_2" x1="50%" y1="0%" x2="100%" y2="100%"><stop offset="10%" stop-color="#d96162" stop-opacity="1"></stop><stop offset="90%" stop-color="#f48350" stop-opacity="1"></stop></linearGradient></defs><defs><linearGradient id="grad1_3" x1="50%" y1="0%" x2="100%" y2="100%"><stop offset="10%" stop-color="#d96162" stop-opacity="1"></stop><stop offset="90%" stop-color="#af4b6d" stop-opacity="1"></stop></linearGradient></defs><defs><linearGradient id="grad1_4" x1="50%" y1="0%" x2="100%" y2="100%"><stop offset="10%" stop-color="#7c3e6b" stop-opacity="1"></stop><stop offset="90%" stop-color="#af4b6d" stop-opacity="1"></stop></linearGradient></defs><defs><linearGradient id="grad1_5" x1="50%" y1="0%" x2="100%" y2="100%"><stop offset="10%" stop-color="#7c3e6b" stop-opacity="1"></stop><stop offset="90%" stop-color="#49335c" stop-opacity="1"></stop></linearGradient></defs><defs><linearGradient id="grad1_6" x1="50%" y1="0%" x2="100%" y2="100%"><stop offset="10%" stop-color="#1d2540" stop-opacity="1"></stop><stop offset="90%" stop-color="#49335c" stop-opacity="1"></stop></linearGradient></defs><defs><linearGradient id="grad1_7" x1="50%" y1="0%" x2="100%" y2="100%"><stop offset="10%" stop-color="#1d2540" stop-opacity="1"></stop><stop offset="90%" stop-color="#001220" stop-opacity="1"></stop></linearGradient></defs><defs><linearGradient id="grad2_0" x1="0%" y1="0%" x2="50%" y2="100%"><stop offset="10%" stop-color="#fbae3c" stop-opacity="1"></stop><stop offset="90%" stop-color="#fbae3c" stop-opacity="1"></stop></linearGradient></defs><defs><linearGradient id="grad2_1" x1="0%" y1="0%" x2="50%" y2="100%"><stop offset="10%" stop-color="#f48350" stop-opacity="1"></stop><stop offset="90%" stop-color="#fbae3c" stop-opacity="1"></stop></linearGradient></defs><defs><linearGradient id="grad2_2" x1="0%" y1="0%" x2="50%" y2="100%"><stop offset="10%" stop-color="#f48350" stop-opacity="1"></stop><stop offset="90%" stop-color="#d96162" stop-opacity="1"></stop></linearGradient></defs><defs><linearGradient id="grad2_3" x1="0%" y1="0%" x2="50%" y2="100%"><stop offset="10%" stop-color="#af4b6d" stop-opacity="1"></stop><stop offset="90%" stop-color="#d96162" stop-opacity="1"></stop></linearGradient></defs><defs><linearGradient id="grad2_4" x1="0%" y1="0%" x2="50%" y2="100%"><stop offset="10%" stop-color="#af4b6d" stop-opacity="1"></stop><stop offset="90%" stop-color="#7c3e6b" stop-opacity="1"></stop></linearGradient></defs><defs><linearGradient id="grad2_5" x1="0%" y1="0%" x2="50%" y2="100%"><stop offset="10%" stop-color="#49335c" stop-opacity="1"></stop><stop offset="90%" stop-color="#7c3e6b" stop-opacity="1"></stop></linearGradient></defs><defs><linearGradient id="grad2_6" x1="0%" y1="0%" x2="50%" y2="100%"><stop offset="10%" stop-color="#49335c" stop-opacity="1"></stop><stop offset="90%" stop-color="#1d2540" stop-opacity="1"></stop></linearGradient></defs><defs><linearGradient id="grad2_7" x1="0%" y1="0%" x2="50%" y2="100%"><stop offset="10%" stop-color="#001220" stop-opacity="1"></stop><stop offset="90%" stop-color="#1d2540" stop-opacity="1"></stop></linearGradient></defs><g transform="translate(900, 0)"><path d="M0 450C-69.5 423.1 -139 396.1 -209 362C-279 327.9 -349.5 286.5 -389.7 225C-430 163.5 -440 81.7 -450 0L0 0Z" fill="#0c1c30"></path><path d="M0 393.8C-60.8 370.2 -121.6 346.6 -182.9 316.7C-244.1 286.9 -305.8 250.7 -341 196.9C-376.2 143 -385 71.5 -393.7 0L0 0Z" fill="#312c4f"></path><path d="M0 337.5C-52.1 317.3 -104.3 297.1 -156.7 271.5C-209.2 245.9 -262.1 214.9 -292.3 168.8C-322.5 122.6 -330 61.3 -337.5 0L0 0Z" fill="#623965"></path><path d="M0 281.3C-43.4 264.4 -86.9 247.6 -130.6 226.2C-174.4 204.9 -218.4 179.1 -243.6 140.6C-268.7 102.2 -275 51.1 -281.2 0L0 0Z" fill="#96446e"></path><path d="M0 225C-34.8 211.5 -69.5 198.1 -104.5 181C-139.5 163.9 -174.7 143.3 -194.9 112.5C-215 81.7 -220 40.9 -225 0L0 0Z" fill="#c55469"></path><path d="M0 168.8C-26.1 158.6 -52.1 148.5 -78.4 135.7C-104.6 122.9 -131 107.4 -146.1 84.4C-161.2 61.3 -165 30.7 -168.7 0L0 0Z" fill="#e9705a"></path><path d="M0 112.5C-17.4 105.8 -34.8 99 -52.2 90.5C-69.7 82 -87.4 71.6 -97.4 56.3C-107.5 40.9 -110 20.4 -112.5 0L0 0Z" fill="#fa9845"></path><path d="M0 56.3C-8.7 52.9 -17.4 49.5 -26.1 45.2C-34.9 41 -43.7 35.8 -48.7 28.1C-53.7 20.4 -55 10.2 -56.2 0L0 0Z" fill="#fbae3c"></path></g><g transform="translate(0, 450)"><path d="M0 -450C67.6 -419.8 135.3 -389.7 205.5 -355.9C275.7 -322.2 348.5 -284.9 389.7 -225C430.9 -165.1 440.4 -82.5 450 0L0 0Z" fill="#0c1c30"></path><path d="M0 -393.7C59.2 -367.4 118.4 -341 179.8 -311.4C241.3 -281.9 305 -249.3 341 -196.9C377 -144.4 385.4 -72.2 393.8 0L0 0Z" fill="#312c4f"></path><path d="M0 -337.5C50.7 -314.9 101.5 -292.2 154.1 -267C206.8 -241.7 261.4 -213.7 292.3 -168.8C323.2 -123.8 330.3 -61.9 337.5 0L0 0Z" fill="#623965"></path><path d="M0 -281.2C42.3 -262.4 84.5 -243.5 128.4 -222.5C172.3 -201.4 217.8 -178.1 243.6 -140.6C269.3 -103.2 275.3 -51.6 281.3 0L0 0Z" fill="#96446e"></path><path d="M0 -225C33.8 -209.9 67.6 -194.8 102.7 -178C137.9 -161.1 174.3 -142.5 194.9 -112.5C215.4 -82.5 220.2 -41.3 225 0L0 0Z" fill="#c55469"></path><path d="M0 -168.7C25.4 -157.4 50.7 -146.1 77.1 -133.5C103.4 -120.8 130.7 -106.8 146.1 -84.4C161.6 -61.9 165.2 -31 168.8 0L0 0Z" fill="#e9705a"></path><path d="M0 -112.5C16.9 -105 33.8 -97.4 51.4 -89C68.9 -80.6 87.1 -71.2 97.4 -56.3C107.7 -41.3 110.1 -20.6 112.5 0L0 0Z" fill="#fa9845"></path><path d="M0 -56.2C8.5 -52.5 16.9 -48.7 25.7 -44.5C34.5 -40.3 43.6 -35.6 48.7 -28.1C53.9 -20.6 55.1 -10.3 56.3 0L0 0Z" fill="#fbae3c"></path></g></svg>